<?xml version="1.0" encoding="UTF-8"?>
<svg version="1.1" xmlns="http://www.w3.org/2000/svg" width="512" height="512">
<path d="M0 0 C168.96 0 337.92 0 512 0 C512 168.96 512 337.92 512 512 C343.04 512 174.08 512 0 512 C0 343.04 0 174.08 0 0 Z " fill="#FEFEFE" transform="translate(0,0)"/>
<path d="M0 0 C168.96 0 337.92 0 512 0 C512 105.6 512 211.2 512 320 C475.04 320 438.08 320 400 320 C400 309.44 400 298.88 400 288 C426.4 288 452.8 288 480 288 C479.896875 276.3675 479.79375 264.735 479.6875 252.75 C479.65015747 247.2755127 479.65015747 247.2755127 479.61206055 241.69042969 C479.57542266 238.36951474 479.57542266 238.36951474 479.5349884 235.04864502 C479.51902038 233.58922048 479.50861058 232.12972771 479.50288391 230.67022705 C479.41040229 209.82618485 474.14816619 193.50751248 459.625 178.1875 C447.31770183 166.40525721 430.40484225 160.82673509 413.58984375 160.5859375 C412.73693253 160.56657135 411.8840213 160.5472052 411.00526428 160.5272522 C408.31610706 160.46809898 405.6269055 160.42133162 402.9375 160.375 C401.09959206 160.33676089 399.2617009 160.29770583 397.42382812 160.2578125 C392.9493572 160.1624515 388.47480262 160.07818747 384 160 C383.97812622 158.27668457 383.97812622 158.27668457 383.95581055 156.51855469 C383.8972555 152.20185263 383.8200332 147.8856415 383.73754883 143.56933594 C383.70456579 141.71134487 383.67645366 139.85326001 383.65356445 137.99511719 C383.5226598 127.64529423 383.30856332 117.92264901 380 108 C379.71060547 107.11143311 379.42121094 106.22286621 379.12304688 105.30737305 C374.24255202 91.03780572 362.41625197 78.58372422 349 72 C344.72748747 70.12654749 340.42011526 68.49024242 336 67 C335.27554687 66.75121094 334.55109375 66.50242187 333.8046875 66.24609375 C318.66585139 62.00128284 301.95507099 64.97289885 288.4375 72.375 C281.09202855 76.78060773 274.00059578 81.59361602 266.93139648 86.42724609 C266.06200439 87.01844238 265.1926123 87.60963867 264.296875 88.21875 C263.51666992 88.75435547 262.73646484 89.28996094 261.93261719 89.84179688 C260 91 260 91 258 91 C256.66015625 89.15625 256.66015625 89.15625 255.0625 86.5 C241.61687427 64.85310048 228.38032675 47.90550628 204 38 C202.84951172 37.52433594 202.84951172 37.52433594 201.67578125 37.0390625 C182.97125535 30.05511753 160.83658811 31.47512918 142.828125 39.63671875 C141.89484375 40.08660156 140.9615625 40.53648438 140 41 C139.08734375 41.41894531 138.1746875 41.83789062 137.234375 42.26953125 C118.49964097 51.55660655 106.51991597 68.9541753 99.8671875 88.29296875 C97.30982942 97.29337945 96.82216308 105.96464171 96.68359375 115.27734375 C96.6524221 117.02707237 96.6524221 117.02707237 96.62062073 118.81214905 C96.55549089 122.52054224 96.49641083 126.22900332 96.4375 129.9375 C96.39427999 132.45899126 96.3506646 134.98047577 96.30664062 137.50195312 C96.19984716 143.66789799 96.0980143 149.83390967 96 156 C95.17910889 156.32685791 94.35821777 156.65371582 93.51245117 156.99047852 C90.40931328 158.23230141 87.31057545 159.48410608 84.21411133 160.74243164 C82.88431209 161.28053496 81.55297113 161.81484707 80.2199707 162.3449707 C60.49998267 170.19582846 46.30918176 180.695456 37 200 C26.05872308 225.46610796 32.24662745 270.48945137 32 288 C80.51 288 129.02 288 179 288 C169.33502381 299.27580555 158.50132267 309.49867733 148 320 C99.16 320 50.32 320 0 320 C0 214.4 0 108.8 0 0 Z " fill="#010101" transform="translate(0,0)"/>
<path d="M0 0 C1.37040306 0.00094054 2.74105841 0.03430307 4.11010742 0.09521484 C5.19819954 0.10794937 5.19819954 0.10794937 6.30827332 0.12094116 C8.61225574 0.15437833 10.91266269 0.2296212 13.21557617 0.30615234 C14.7825827 0.33626529 16.34964442 0.36363879 17.91674805 0.38818359 C21.74688973 0.45413535 25.57437808 0.5575744 29.40307617 0.68115234 C27.68217051 19.08912504 25.9152246 37.44165286 22.46557617 55.62255859 C20.87562901 64.28863594 19.8110471 73.04048475 18.65576172 81.77294922 C18.34791284 84.09189925 18.03398172 86.40997108 17.71948242 88.72802734 C17.63187149 89.40355652 17.54426056 90.07908569 17.45399475 90.77508545 C16.44331814 98.17607313 14.87845534 105.30425652 13.40307617 112.68115234 C33.86307617 112.68115234 54.32307617 112.68115234 75.40307617 112.68115234 C75.40307617 143.68115234 75.40307617 143.68115234 69.70849609 150.8215332 C67.58109093 152.55965996 67.58109093 152.55965996 65.52523804 153.88034058 C59.36232142 158.22743516 54.28088258 163.55709194 49.01128352 168.91698468 C46.5371976 171.4273029 44.0412951 173.91540893 41.54573256 176.40434963 C39.56330141 178.38190123 37.58362808 180.36217627 35.60470009 182.34323311 C31.44990288 186.50205425 27.29231025 190.6580738 23.13456726 194.81394958 C17.30731696 200.63939135 11.48215457 206.46691464 5.65820312 212.2956543 C-1.06739661 219.02671975 -7.79662551 225.75414093 -14.52770013 232.47973114 C-20.33113385 238.27862656 -26.13261645 244.07946855 -31.93247253 249.88194221 C-35.38654785 253.33757307 -38.84128721 256.79253277 -42.29779625 260.24572945 C-45.53823247 263.48327565 -48.77621001 266.72326099 -52.01231194 269.96513939 C-53.19822841 271.15237628 -54.38499328 272.33876641 -55.5726738 273.52423859 C-57.1952416 275.14406732 -58.81468762 276.76695544 -60.43339539 278.39064026 C-61.33939326 279.29701516 -62.24539114 280.20339006 -63.1788435 281.13723087 C-65.64681456 283.63657465 -65.64681456 283.63657465 -67.70193195 286.47633266 C-69.59692383 288.68115234 -69.59692383 288.68115234 -73.08032227 289.2487793 C-74.45590185 289.24799264 -75.8316497 289.22002588 -77.20629883 289.16943359 C-77.93310852 289.16235886 -78.65991821 289.15528412 -79.40875244 289.147995 C-81.7225384 289.12007964 -84.03387381 289.05735617 -86.34692383 288.99365234 C-87.91850337 288.96856534 -89.49012098 288.94575285 -91.06176758 288.92529297 C-94.90775903 288.87026367 -98.75192648 288.784019 -102.59692383 288.68115234 C-101.58512586 273.15528701 -99.34214298 257.91089297 -96.80541992 242.57519531 C-95.31106862 233.49882535 -94.02177139 224.43611142 -93.0144043 215.29223633 C-92.40725596 210.04058075 -91.51614361 204.89006442 -90.59692383 199.68115234 C-89.27692383 192.09115234 -87.95692383 184.50115234 -86.59692383 176.68115234 C-107.05692383 176.68115234 -127.51692383 176.68115234 -148.59692383 176.68115234 C-148.59692383 145.68115234 -148.59692383 145.68115234 -142.88647461 138.52490234 C-140.75720596 136.78491211 -140.75720596 136.78491211 -138.70343018 135.46630859 C-132.57879493 131.14991914 -127.53109634 125.86179827 -122.29622054 120.53640938 C-119.84505757 118.04901875 -117.37208495 115.58383718 -114.89944685 113.11782169 C-112.93564727 111.15890146 -110.97460545 109.19725817 -109.01430893 107.23483276 C-104.89704334 103.11354178 -100.77698068 98.9950541 -96.6567688 94.87670898 C-90.88079311 89.10254182 -85.10690523 83.32629329 -79.33422852 77.54882812 C-72.67113157 70.88026782 -66.00440874 64.21534866 -59.33583724 57.55226326 C-53.58419072 51.80515785 -47.83449886 46.05610236 -42.08643067 40.30541801 C-38.66418091 36.88161397 -35.24127013 33.45847812 -31.81658554 30.03710938 C-28.60487132 26.82828919 -25.39562354 23.61702225 -22.18824196 20.40387154 C-21.01403241 19.22834361 -19.83897826 18.05365863 -18.66300392 16.87989616 C-17.05391886 15.27355838 -15.44796876 13.66414814 -13.84274292 12.05395508 C-12.94504118 11.15587631 -12.04733944 10.25779755 -11.12243462 9.33250427 C-9.26933596 7.38706942 -7.64188348 5.49025867 -5.99386787 3.38792419 C-3.59692383 0.68115234 -3.59692383 0.68115234 0 0 Z " fill="#010101" transform="translate(292.596923828125,223.31884765625)"/>
<path d="M0 0 C108.24 0 216.48 0 328 0 C328 70.62 328 141.24 328 214 C327.67 214 327.34 214 327 214 C326.79246094 212.741875 326.58492188 211.48375 326.37109375 210.1875 C322.87140867 190.2633566 315.89797504 173.78670184 301.72265625 158.99609375 C300 157 300 157 300 155 C299.40703125 154.73316406 298.8140625 154.46632812 298.203125 154.19140625 C295.96181375 152.97934963 294.55421814 151.72064083 292.75 149.9375 C286.60940223 144.44086005 279.28267753 140.75616452 272 137 C271.15695312 136.56429687 270.31390625 136.12859375 269.4453125 135.6796875 C258.05513144 130.53181207 244.34569234 129.04248865 232 128 C231.90295776 127.12601563 231.90295776 127.12601563 231.80395508 126.234375 C229.08359486 102.47267067 223.66847169 80.03844573 205.765625 62.85546875 C204 61 204 61 204 59 C203.40703125 58.73316406 202.8140625 58.46632812 202.203125 58.19140625 C199.96181375 56.97934963 198.55421814 55.72064083 196.75 53.9375 C190.60940223 48.44086005 183.28267753 44.75616452 176 41 C175.15695312 40.56429687 174.31390625 40.12859375 173.4453125 39.6796875 C152.06113053 30.01495045 124.92157799 30.34441135 103.125 38.3125 C97.96128829 40.44674768 93.08234935 42.97930037 88.2421875 45.765625 C86 47 86 47 83 48 C82.67128906 47.53851563 82.34257812 47.07703125 82.00390625 46.6015625 C65.41712505 23.85654547 41.16382049 7.20387138 13.00341797 2.67919922 C8.67780515 2.04488323 4.34274872 1.50428093 0 1 C0 0.67 0 0.34 0 0 Z " fill="#FEFEFE" transform="translate(184,0)"/>
<path d="M0 0 C55.11 0 110.22 0 167 0 C167 0.33 167 0.66 167 1 C166.11441406 1.08636719 165.22882813 1.17273438 164.31640625 1.26171875 C132.57402816 4.86205092 106.59417836 20.34652919 86.3359375 45.02734375 C69.65701614 66.83481045 65.19023528 92.37063748 64.4375 119.125 C64.39419844 120.57292622 64.35058094 122.02084302 64.30664062 123.46875 C64.20078894 126.97906578 64.09919761 130.48948913 64 134 C62.97261719 134.49628906 61.94523437 134.99257812 60.88671875 135.50390625 C33.86824371 148.68277259 15.13718634 166.17799979 5 195 C3.01258723 201.60159978 1.65955227 208.14065636 1 215 C0.67 215 0.34 215 0 215 C0 144.05 0 73.1 0 0 Z " fill="#FEFEFE" transform="translate(0,0)"/>
<path d="M0 0 C1.03483253 3.6689126 0.85410935 6.33591206 0.29296875 10.12890625 C0.0309668 11.93004883 0.0309668 11.93004883 -0.23632812 13.76757812 C-0.42646484 15.01990234 -0.61660156 16.27222656 -0.8125 17.5625 C-0.99103516 18.78775391 -1.16957031 20.01300781 -1.35351562 21.27539062 C-2.30587832 27.7287653 -3.37431119 34.14590848 -4.5690918 40.55834961 C-5.18166626 44.02937351 -5.59813345 47.49802006 -6 51 C-6.53095997 55.4889294 -7.12624535 59.93796465 -8 64.375 C-9.11917569 70.14712657 -9.7103763 75.96278338 -10.30273438 81.80810547 C-10.6647481 85.3134022 -11.14303516 88.57214062 -12 92 C4.5 92 21 92 38 92 C31.25000118 99.87499862 31.25000118 99.87499862 28.18562317 102.93463135 C27.14481346 103.97750305 27.14481346 103.97750305 26.08297729 105.04144287 C25.34250153 105.77832336 24.60202576 106.51520386 23.83911133 107.27441406 C23.04326126 108.07041016 22.24741119 108.86640625 21.42744446 109.68652344 C18.81467189 112.29860333 16.19838186 114.90712943 13.58203125 117.515625 C11.75911452 119.33667474 9.93641986 121.15794682 8.11393738 122.97943115 C3.81651644 127.27343306 -0.48312138 131.56520329 -4.78386146 135.8558805 C-9.67134777 140.73217831 -14.55598702 145.61132381 -19.44038808 150.49071169 C-29.07967457 160.11999078 -38.72217168 169.74604911 -48.366992 179.36978531 C-49.91218499 180.91233521 -51.45638061 182.45587556 -53 184 C-52.52728049 176.98384722 -51.75710868 170.12361588 -50.53515625 163.19921875 C-49.93996328 159.64109433 -49.46316094 156.07764473 -49 152.5 C-48.06115249 145.31672483 -46.92709557 138.18419361 -45.65185547 131.05322266 C-43.89360175 121.21204508 -42.52154558 111.42317277 -41.64648438 101.4609375 C-41.57494141 100.66042969 -41.50339844 99.85992187 -41.4296875 99.03515625 C-41.37022949 98.3275415 -41.31077148 97.61992676 -41.24951172 96.89086914 C-41 95 -41 95 -40 92 C-56.83 92 -73.66 92 -91 92 C-84.25 84.125 -84.25 84.125 -81.05154419 80.93128967 C-80.32809311 80.20646393 -79.60464203 79.48163818 -78.85926819 78.73484802 C-77.69940651 77.58037926 -77.69940651 77.58037926 -76.51611328 76.40258789 C-75.2712188 75.15747437 -75.2712188 75.15747437 -74.00117493 73.88720703 C-71.27658621 71.16331106 -68.54848005 68.44296737 -65.8203125 65.72265625 C-63.92294801 63.82715821 -62.02578166 61.93146393 -60.12887573 60.0355072 C-55.65804566 55.56777414 -51.18467466 51.10259436 -46.71036518 46.63834614 C-41.61280773 41.55200071 -36.51811981 36.46278514 -31.42366052 31.37333691 C-20.95227742 20.91238124 -10.47732907 10.45500048 0 0 Z " fill="#FCFCFC" transform="translate(282,276)"/>
</svg>
